<svg xmlns="http://www.w3.org/2000/svg" fill="none" viewBox="0 0 20 21"><path fill="#d0d0d0" d="m8.577 1.385.021 1.066-4.134 3.956H1.15V9.72h1.22l-.015 6.146h-1.22v3.281H4.45v-1.219l10.947.053V19.2h3.313v-3.282h-1.25l-.006-6.205h1.25V6.4h-3.312l-3.489-3.977-.02-1.038zm.715.725 1.798-.004c-.005.734.007 1.112 0 1.729l-1.798.003c-.004-1.072 0-.393 0-1.728m6.911 5.102h1.688V8.9h-1.688zm-14.24.007h1.688v1.688H1.964zm13.407.439.02 2.054h1.25l.005 6.206h-1.218v1.25L4.48 17.115v-1.25H3.23l.015-6.146h1.219l-.022-2.054 4.135-3.956v.904h3.304V3.68zm.839 9.072h1.686v1.688H16.21zm-14.26-.053h1.688v1.688H1.949z"/></svg>